<?xml version="1.0" standalone="no"?><!DOCTYPE svg PUBLIC "-//W3C//DTD SVG 1.1//EN" "http://www.w3.org/Graphics/SVG/1.1/DTD/svg11.dtd"><svg class="icon" width="200px" height="200.00px" viewBox="0 0 1024 1024" version="1.1" xmlns="http://www.w3.org/2000/svg"><path fill="#333333" d="M813.978682 321.299727c-7.833409-8.830109-21.336958-9.661034-30.193672-1.827625-8.846482 7.828292-9.661034 21.347191-1.827625 30.193673 75.80243 85.599563 108.168582 199.25102 88.784092 311.805491-35.040051 203.334012-229.068116 340.245218-432.298773 305.226657-203.340151-35.040051-340.265684-228.963739-305.226656-432.298774 16.971533-98.497315 71.285556-184.493921 152.932088-242.143922 79.750345-56.305377 176.262446-78.908164 272.511557-64.086597l-132.426055 105.601106c-9.232269 7.362688-10.746762 20.820188-3.384074 30.057573 4.219091 5.294586 10.443863 8.052396 16.731056 8.052397 4.678556 0 9.388834-1.524726 13.326517-4.668323l193.45399-154.26341L492.083391 19.488867C484.730936 10.251481 471.258087 8.731872 462.025818 16.104793c-9.232269 7.362688-10.746762 20.820188-3.384073 30.057573L570.731636 186.715519c-109.094674-18.251689-218.838124 6.751774-309.25132 70.594825-90.988294 64.241117-151.511739 160.064532-170.425507 269.821285-18.908652 109.766986 6.051833 220.316801 70.292949 311.304072 64.241117 90.978061 160.069649 151.500483 269.826402 170.415274a417.58056 417.58056 0 0 0 71.019497 6.098905c199.094454 0 375.775432-143.490042 410.699849-346.208023 21.608134-125.423571-14.443967-252.066923-98.914824-347.44213z" /></svg>