<?xml version="1.0" standalone="no"?><!DOCTYPE svg PUBLIC "-//W3C//DTD SVG 1.1//EN" "http://www.w3.org/Graphics/SVG/1.1/DTD/svg11.dtd"><svg t="1600063900263" class="icon" viewBox="0 0 1026 1024" version="1.1" xmlns="http://www.w3.org/2000/svg" p-id="1183" xmlns:xlink="http://www.w3.org/1999/xlink" width="200.390625" height="200"><defs><style type="text/css"></style></defs><path d="M987.428571 114.285714H36.571429c-20.228571 0-36.571429 16.342857-36.571429 36.571429v731.428571c0 20.228571 16.342857 36.571429 36.571429 36.571429h950.857142c20.228571 0 36.571429-16.342857 36.571429-36.571429V150.857143c0-20.228571-16.342857-36.571429-36.571429-36.571429z m-105.485714 222.171429l-339.428571 339.657143a9.177143 9.177143 0 0 1-12.914286 0L398.742857 545.257143 201.6 742.514286a9.177143 9.177143 0 0 1-12.914286 0l-42.057143-42.057143a9.177143 9.177143 0 0 1 0-12.914286l245.6-245.714286c3.542857-3.542857 9.371429-3.542857 12.914286 0L536 572.571429l290.857143-290.971429c3.542857-3.542857 9.371429-3.542857 12.914286 0l42.057142 42.057143c3.657143 3.428571 3.657143 9.257143 0.114286 12.8z" p-id="1184"></path></svg>